<mxfile host="app.diagrams.net" modified="2020-12-07T07:48:19.382Z" agent="5.0 (Windows)" etag="fU8fqBZa-zVQCZTSGla6" version="13.10.9" type="github">
  <diagram id="Sd2J0G0NBRkxR6U1vvkr" name="Page-1">
    <mxGraphModel dx="1038" dy="547" grid="1" gridSize="10" guides="1" tooltips="1" connect="1" arrows="1" fold="1" page="1" pageScale="1" pageWidth="1169" pageHeight="827" math="0" shadow="0">
      <root>
        <mxCell id="0" />
        <mxCell id="1" parent="0" />
        <mxCell id="flzx41_5z4-G3iRaBKRd-2" value="PROCUREMENT OF GOODS, SERVICES AND WORKS" style="swimlane;html=1;childLayout=stackLayout;resizeParent=1;resizeParentMax=0;horizontal=1;startSize=20;horizontalStack=0;" vertex="1" parent="1">
          <mxGeometry x="10" y="10" width="1150" height="600" as="geometry" />
        </mxCell>
        <mxCell id="flzx41_5z4-G3iRaBKRd-3" value="User" style="swimlane;html=1;startSize=20;horizontal=0;" vertex="1" parent="flzx41_5z4-G3iRaBKRd-2">
          <mxGeometry y="20" width="1150" height="220" as="geometry" />
        </mxCell>
        <mxCell id="flzx41_5z4-G3iRaBKRd-4" value="HoD/ Supervisor" style="swimlane;html=1;startSize=20;horizontal=0;" vertex="1" parent="flzx41_5z4-G3iRaBKRd-2">
          <mxGeometry y="240" width="1150" height="120" as="geometry" />
        </mxCell>
        <mxCell id="flzx41_5z4-G3iRaBKRd-5" value="HoD Procurement" style="swimlane;html=1;startSize=20;horizontal=0;" vertex="1" parent="flzx41_5z4-G3iRaBKRd-2">
          <mxGeometry y="360" width="1150" height="120" as="geometry" />
        </mxCell>
        <mxCell id="flzx41_5z4-G3iRaBKRd-6" value="HoD Finance" style="swimlane;html=1;startSize=20;horizontal=0;" vertex="1" parent="flzx41_5z4-G3iRaBKRd-2">
          <mxGeometry y="480" width="1150" height="120" as="geometry" />
        </mxCell>
      </root>
    </mxGraphModel>
  </diagram>
</mxfile>
